<?xml version="1.0" encoding="utf-8"?>
<!-- Generator: Adobe Illustrator 24.0.2, SVG Export Plug-In . SVG Version: 6.00 Build 0)  -->
<svg version="1.1" xmlns="http://www.w3.org/2000/svg" xmlns:xlink="http://www.w3.org/1999/xlink" x="0px" y="0px"
	 viewBox="0 0 905 553.3" style="enable-background:new 0 0 905 553.3;" xml:space="preserve">
<style type="text/css">
	.st0{display:none;}
	.st1{fill:#414141;}
	.st2{opacity:0.63;}
	.st3{fill:#111111;}
	.st4{fill:#DFDFDF;}
	.st5{fill:none;stroke:#DD0B29;stroke-width:5;stroke-miterlimit:10;}
	.st6{fill:none;stroke:#DD0B29;stroke-width:3;stroke-miterlimit:10;}
	.st7{opacity:0.49;}
	.st8{display:inline;fill:none;stroke:#00FFFF;stroke-miterlimit:10;}
</style>
<g id="Capa_3" class="st0">
	
		<image style="display:inline;overflow:visible;" width="1600" height="900" xlink:href="B35185EA.jpg"  transform="matrix(0.8 0 0 0.8 -278 -459.7168)">
	</image>
	
		<image style="display:inline;overflow:visible;" width="1600" height="900" xlink:href="B35185EE.jpg"  transform="matrix(0.8 0 0 0.8 -278 291.2832)">
	</image>
</g>
<g id="Fondo">
</g>
<g id="Capa_1">
</g>
<g id="Logins">
</g>
<g id="Menú">
	<path class="st1" d="M34,63.4v306.4v10h10h16.6l16,0.3v29c0,32.9,27.1,59.7,60.3,59.7h7.9c2.5,15.2,9.7,29.2,21,40.2
		c13.6,13.3,31.6,20.6,50.6,20.6s37-7.3,50.6-20.6c11.2-10.9,18.5-25,21-40.2h119.7v3.5c0,10.7,8.7,19.5,19.5,19.5h160
		c10.7,0,19.5-8.7,19.5-19.5v-3.5h19.2c2.5,15.2,9.7,29.2,21,40.2c13.6,13.3,31.6,20.6,50.6,20.6s37-7.3,50.6-20.6
		c11.2-10.9,18.5-25,21-40.2h21.7c16,0,31.2-5,44-14.6c12.8-9.6,21.9-22.7,26.2-37.9l10.8-37.6c1.3-4.4,0.4-9-2.3-12.6
		c-2.4-3.2-5.9-5.2-9.9-5.7l-0.4-28.5c-0.3-27-5.2-53.3-14.4-78c-28.3-76-70.9-104.6-93.8-114.9c-8.7-3.9-18-5.9-27.7-5.9H611.6
		V55.8c0-17.6-14.4-32-32-32c-17.6,0-32,14.4-32,32v2.5c-0.2,0-0.4,0-0.6,0H96.6V46.7c0-12.7-10.3-23-23-23
		C51.8,23.8,34,41.6,34,63.4z M44,63.4c0-16.4,13.3-29.6,29.6-29.6c7.2,0,13,5.8,13,13v21.5H547c5.9,0,10.6,4.8,10.6,10.6V55.8
		c0-12.2,9.8-22,22-22s22,9.8,22,22v77.3v10h10h111.5c8.1,0,16.2,1.7,23.6,5c21.3,9.6,61.4,36.6,88.5,109.3
		c8.9,23.9,13.5,49.2,13.8,74.7l0.5,38.3h8.2c3,0,5.1,2.8,4.3,5.6l-10.8,37.6c-7.7,26.8-32.4,45.3-60.6,45.3h-30.8
		c-0.9,33.7-28.5,60.8-62.5,60.8s-61.5-27-62.5-60.8h-38.3v13.5c0,5.2-4.2,9.5-9.5,9.5h-160c-5.2,0-9.5-4.2-9.5-9.5v-13.5H278.8
		c-0.9,33.7-28.5,60.7-62.5,60.7s-61.5-27-62.5-60.7h-17c-27.8,0-50.3-22.2-50.3-49.7v-28.8l0.5,0v-10l-26.5-0.5H44V63.4z"/>
	<g class="st7">
		<defs>
			<rect id="SVGID_1_" x="942" y="0.3" class="st7" width="880" height="550.2"/>
		</defs>
		<clipPath id="SVGID_2_">
			<use xlink:href="#SVGID_1_"  style="overflow:visible;"/>
		</clipPath>
		<g style="clip-path:url(#SVGID_2_);">
			
				<image style="overflow:visible;" width="1300" height="1300" xlink:href="GRUPO CD/80577326-cargo-vehículo-de-camiones-icono-de-la-ilustración-vectorial-diseño-gráfico.jpg"  transform="matrix(0.8259 0 0 0.8259 838.4706 -270.0436)">
			</image>
		</g>
	</g>
	<g>
		<path class="st4" d="M604.1,144.6l0.5,222.2h242.3l-0.5-35.7c-0.3-25.6-4.9-50.4-13.6-73.8c-26.7-71.7-66.1-98.4-87.2-107.9
			c-7-3.2-14.6-4.8-22.5-4.8H604.1z M749,293.4c-17.3-2.8-61.8-12.1-100.3-38.1c-5.4-3.7-8.6-9.8-8.6-16.4v-60.5
			c0-5,4.1-9.1,9.1-9.1h73c8,0,15.6,2.4,22,6.9c15.5,11,44.7,39.3,66.6,104.8c1,3.1,0.5,6.4-1.4,9.1c-1.9,2.6-4.9,4.2-8.1,4.2h-40.9
			C756.6,294.3,752.8,294,749,293.4z M639.6,283.8c0-4.1,3.4-7.5,7.5-7.5h11c4.1,0,7.5,3.4,7.5,7.5v41.5c0,4.1-3.4,7.5-7.5,7.5h-11
			c-4.1,0-7.5-3.4-7.5-7.5V283.8z"/>
		<path class="st4" d="M560.1,54.8c0-10.8,8.7-19.5,19.5-19.5s19.5,8.7,19.5,19.5v4.3h-39V54.8z"/>
		<path class="st4" d="M857.6,371.8c0.6,0,1.2,0.3,1.6,0.8c0.2,0.3,0.5,0.9,0.3,1.6l-2.3,8H89.1v-10.4h510.5H852H857.6z"/>
		<path class="st4" d="M848.8,411.8c-7.3,25.6-31.2,43.4-58.2,43.4h-28.2c-0.4-35.5-29.4-64.3-65-64.3s-64.6,28.8-65,64.3h-33.3v-41
			c0-6.6-5.4-12-12-12h-160c-6.6,0-12,5.4-12,12v41H281.3c-0.4-35.5-29.4-64.3-65-64.3s-64.6,28.8-65,64.3h-14.5
			c-26.4,0-47.8-21.2-47.8-47.2v-20.9h766.7L848.8,411.8z"/>
		<path class="st4" d="M547,69.8c4.5,0,8.1,3.6,8.1,8.1v288.4h-466V69.8H547z"/>
		<path class="st4" d="M156.4,455.3c0,0.3,0,0.5,0,0.8c0,1.4,0.1,2.8,0.2,4.3c2.2,31.1,28.2,55.7,59.8,55.7s57.6-24.6,59.8-55.7
			c0.1-1.4,0.2-2.8,0.2-4.3c0-0.3,0-0.5,0-0.8c-0.4-32.7-27.1-59.3-60-59.3S156.8,422.5,156.4,455.3z M181.9,456c0-0.3,0-0.5,0-0.8
			c0.4-18.7,15.7-33.8,34.5-33.8s34.1,15.1,34.5,33.8c0,0.3,0,0.5,0,0.8c0,1.4-0.1,2.9-0.3,4.3c-2.1,17-16.6,30.3-34.2,30.3
			s-32.1-13.2-34.2-30.3C182,458.9,181.9,457.5,181.9,456z"/>
		<path class="st4" d="M637.4,455.3c0,0.3,0,0.5,0,0.8c0,1.4,0.1,2.8,0.2,4.3c2.2,31.1,28.2,55.8,59.8,55.8s57.6-24.6,59.8-55.8
			c0.1-1.4,0.2-2.8,0.2-4.3c0-0.3,0-0.5,0-0.8c-0.4-32.7-27.1-59.3-60-59.3S637.8,422.5,637.4,455.3z M662.9,456c0-0.3,0-0.5,0-0.8
			c0.4-18.7,15.7-33.8,34.5-33.8s34.1,15.1,34.5,33.8c0,0.3,0,0.5,0,0.8c0,1.4-0.1,2.9-0.3,4.3c-2.1,17-16.6,30.3-34.2,30.3
			s-32.1-13.2-34.2-30.3C663,458.9,662.9,457.5,662.9,456z"/>
		<g>
			<path class="st1" d="M41.5,62.4v308.9h16.6h26v36.8c0,28.8,23.7,52.2,52.8,52.2h14.6c2.2,33.9,30.4,60.7,64.8,60.7
				s62.6-26.9,64.8-60.7h133.9v11c0,6.6,5.4,12,12,12h160c6.6,0,12-5.4,12-12v-11h33.4c2.2,33.9,30.4,60.8,64.8,60.8
				s62.6-26.9,64.8-60.8h28.4c29.2,0,55.1-19.4,63-47.1l10.8-37.6c0.6-2.1,0.2-4.3-1.1-6c-1.3-1.8-3.4-2.8-5.6-2.8h-5.7l-0.5-35.8
				c-0.3-26.1-5-51.5-14-75.5c-27.4-73.4-68-100.9-89.8-110.7c-7.7-3.5-16-5.2-24.6-5.2h-119V54.8c0-13.5-11-24.5-24.5-24.5
				s-24.5,11-24.5,24.5v12.8c-2.2-1.8-5.1-2.8-8.1-2.8H89.1v-19c0-8.5-6.9-15.5-15.5-15.5C55.9,30.3,41.5,44.7,41.5,62.4z
				 M555.1,77.9v288.4h-466V69.8H547C551.5,69.8,555.1,73.4,555.1,77.9z M599.1,59.1h-39v-4.3c0-10.8,8.7-19.5,19.5-19.5
				s19.5,8.7,19.5,19.5V59.1z M599.1,139.6L599.1,139.6v2.7v224.1h-39V77.9V64.1h39V139.6z M846.9,366.8H604.6l-0.5-222.2h119
				c7.9,0,15.5,1.6,22.5,4.8c21.1,9.5,60.5,36.1,87.2,107.9c8.7,23.4,13.3,48.3,13.6,73.8L846.9,366.8z M859.5,374.2l-2.3,8H89.1
				v-10.4h510.5H852h5.6c0.6,0,1.2,0.3,1.6,0.8C859.4,372.8,859.8,373.4,859.5,374.2z M637.5,460.3c-0.1-1.4-0.2-2.8-0.2-4.3
				c0-0.3,0-0.5,0-0.8c0.4-32.7,27.1-59.3,60-59.3s59.6,26.5,60,59.3c0,0.3,0,0.5,0,0.8c0,1.4-0.1,2.8-0.2,4.3
				C755,491.4,729,516,697.4,516S639.7,491.4,637.5,460.3z M420.1,460.3v-5v-41c0-3.9,3.1-7,7-7h160c3.9,0,7,3.1,7,7v41v5v11
				c0,3.9-3.1,7-7,7h-160c-3.9,0-7-3.1-7-7V460.3z M156.5,460.3c-0.1-1.4-0.2-2.8-0.2-4.3c0-0.3,0-0.5,0-0.8
				c0.4-32.7,27.1-59.3,60-59.3s59.6,26.5,60,59.3c0,0.3,0,0.5,0,0.8c0,1.4-0.1,2.8-0.2,4.3C274,491.4,248,516,216.4,516
				S158.7,491.4,156.5,460.3z M89.1,387.2h766.7l-7,24.6c-7.3,25.6-31.2,43.4-58.2,43.4h-28.2c-0.4-35.5-29.4-64.3-65-64.3
				s-64.6,28.8-65,64.3h-33.3v-41c0-6.6-5.4-12-12-12h-160c-6.6,0-12,5.4-12,12v41H281.3c-0.4-35.5-29.4-64.3-65-64.3
				s-64.6,28.8-65,64.3h-14.5c-26.4,0-47.8-21.2-47.8-47.2V387.2z M46.5,62.4c0-15,12.2-27.1,27.1-27.1c5.8,0,10.5,4.7,10.5,10.5v19
				v5v296.5h-21h-5H46.5V62.4z"/>
			<path class="st1" d="M648.7,255.2c38.5,26,82.9,35.3,100.3,38.1c3.8,0.6,7.6,0.9,11.4,0.9h40.9c3.3,0,6.2-1.5,8.1-4.2
				c1.9-2.7,2.4-6,1.4-9.1c-21.8-65.5-51.1-93.8-66.6-104.8c-6.4-4.5-14-6.9-22-6.9h-73c-5,0-9.1,4.1-9.1,9.1v60.5
				C640.1,245.5,643.3,251.6,648.7,255.2z M645.1,238.9v-60.5c0-2.3,1.8-4.1,4.1-4.1h73c7,0,13.6,2.1,19.1,6
				c15,10.7,43.3,38.2,64.7,102.3c0.5,1.6,0.3,3.2-0.7,4.6c-1,1.3-2.4,2.1-4.1,2.1h-40.9c-3.5,0-7.1-0.3-10.6-0.8
				c-17-2.7-60.6-11.9-98.3-37.3C647.5,248.4,645.1,243.8,645.1,238.9z"/>
			<path class="st1" d="M639.6,283.8v41.5c0,4.1,3.4,7.5,7.5,7.5h11c4.1,0,7.5-3.4,7.5-7.5v-41.5c0-4.1-3.4-7.5-7.5-7.5h-11
				C643,276.3,639.6,279.7,639.6,283.8z M644.6,283.8c0-1.4,1.1-2.5,2.5-2.5h11c1.4,0,2.5,1.1,2.5,2.5v41.5c0,1.4-1.1,2.5-2.5,2.5
				h-11c-1.4,0-2.5-1.1-2.5-2.5V283.8z"/>
			<path class="st1" d="M662.9,455.3c0,0.3,0,0.5,0,0.8c0,1.4,0.1,2.9,0.3,4.3c2.1,17,16.6,30.3,34.2,30.3s32.1-13.2,34.2-30.3
				c0.2-1.4,0.3-2.8,0.3-4.3c0-0.3,0-0.5,0-0.8c-0.4-18.7-15.7-33.8-34.5-33.8S663.3,436.6,662.9,455.3z M668.2,460.3
				c-0.2-1.4-0.3-2.8-0.3-4.3c0-0.3,0-0.5,0-0.8c0.4-15.9,13.5-28.8,29.5-28.8s29.1,12.8,29.5,28.8c0,0.3,0,0.5,0,0.8
				c0,1.4-0.1,2.9-0.3,4.3c-2.1,14.3-14.4,25.3-29.2,25.3S670.2,474.5,668.2,460.3z"/>
			<path class="st1" d="M181.9,455.3c0,0.3,0,0.5,0,0.8c0,1.4,0.1,2.9,0.3,4.3c2.1,17,16.6,30.3,34.2,30.3s32.1-13.2,34.2-30.3
				c0.2-1.4,0.3-2.8,0.3-4.3c0-0.3,0-0.5,0-0.8c-0.4-18.7-15.7-33.8-34.5-33.8S182.3,436.6,181.9,455.3z M187.2,460.3
				c-0.2-1.4-0.3-2.8-0.3-4.3c0-0.3,0-0.5,0-0.8c0.4-15.9,13.5-28.8,29.5-28.8s29.1,12.8,29.5,28.8c0,0.3,0,0.5,0,0.8
				c0,1.4-0.1,2.9-0.3,4.3c-2.1,14.3-14.4,25.3-29.2,25.3S189.2,474.5,187.2,460.3z"/>
		</g>
	</g>
</g>
<g id="Reticula_12" class="st0">
</g>
</svg>
