<svg xmlns="http://www.w3.org/2000/svg" viewBox="0 0 25.62 24.62"><defs><style>.cls-1{fill:#4d4d4d;}</style></defs><title>carrito2</title><g id="Capa_2" data-name="Capa 2"><g id="Menú"><circle class="cls-1" cx="10.07" cy="22.37" r="2.25"/><path class="cls-1" d="M22.39,20.12h0a2.25,2.25,0,1,0,2.25,2.25A2.25,2.25,0,0,0,22.39,20.12Z"/><path class="cls-1" d="M24.66,17H8.34L8,15.17H21.44a.94.94,0,0,0,.89-.6l3.19-8A1,1,0,0,0,25,5.27a1,1,0,0,0-.35-.06H6.36L5.59.8a1,1,0,0,0-1-.8H1A1,1,0,0,0,1,1.92H3.83L6.58,18.15a1,1,0,0,0,1,.79H24.66a1,1,0,1,0,0-1.91Z"/></g></g></svg>