<svg xmlns="http://www.w3.org/2000/svg" viewBox="0 0 32.62 32.63"><defs><style>.cls-1{fill:#ababab;}</style></defs><title>lupa</title><g id="Capa_2" data-name="Capa 2"><g id="Menú"><path class="cls-1" d="M3.67,3.68A12.49,12.49,0,0,0,20.86,21.79l.95,1a2,2,0,0,0,0,2.79h0l6.51,6.51a2,2,0,0,0,2.8,0h0l.93-.93a2,2,0,0,0,0-2.79l-6.52-6.51a2,2,0,0,0-2.79,0h0l-.95-1A12.49,12.49,0,0,0,3.67,3.68ZM24.6,22.75l6.51,6.51a.65.65,0,0,1,0,.93l-.93.93a.65.65,0,0,1-.93,0l-6.51-6.51a.67.67,0,0,1,0-.93l.93-.93A.65.65,0,0,1,24.6,22.75ZM20.42,4.61a11.18,11.18,0,1,1-15.82,0A11.19,11.19,0,0,1,20.42,4.61Z"/><path class="cls-1" d="M5.53,5.54h0l.93.93a8.56,8.56,0,0,1,12.1,0l.93-.93A9.88,9.88,0,0,0,5.53,5.54Z"/></g></g></svg>