<svg xmlns="http://www.w3.org/2000/svg" viewBox="0 0 23.85 14.89"><defs><style>.cls-1{fill:#fff;}</style></defs><title>1-regresar</title><g id="Capa_2" data-name="Capa 2"><g id="Logins"><path class="cls-1" d="M16.62,4.17H7.87V.54A.55.55,0,0,0,7.32,0a.56.56,0,0,0-.39.17L.17,7.08a.46.46,0,0,0-.06.66l.06.06,6.76,6.9a.58.58,0,0,0,.4.19h.21a.59.59,0,0,0,.33-.55V11.07h8.75a.85.85,0,0,0,.7-.73V4.53C17.31,4.24,17,4.17,16.62,4.17Z" transform="translate(0)"/><path class="cls-1" d="M19,4a.55.55,0,0,0-.55.54v5.81a.55.55,0,0,0,.55.55.54.54,0,0,0,.54-.55V4.53A.54.54,0,0,0,19,4Z" transform="translate(0)"/><path class="cls-1" d="M21.13,4a.55.55,0,0,0-.55.54v5.81a.55.55,0,0,0,.55.55.54.54,0,0,0,.54-.55V4.53A.54.54,0,0,0,21.13,4Z" transform="translate(0)"/><path class="cls-1" d="M23.31,4a.55.55,0,0,0-.55.54v5.81a.55.55,0,0,0,.55.55.54.54,0,0,0,.54-.55V4.53A.54.54,0,0,0,23.31,4Z" transform="translate(0)"/></g></g></svg>